<svg version="1.2" baseProfile="tiny-ps" xmlns="http://www.w3.org/2000/svg" viewBox="0 0 70 77" width="70" height="77">
	<title>map-svg</title>
	<style>
		tspan { white-space:pre }
		.shp0 { fill: #009cb4 } 
		.shp1 { fill: #ffffff } 
		.shp2 { fill: #ff47a5 } 
	</style>
	<path id="Layer" fill-rule="evenodd" class="shp0" d="M70 27.65C70 46.57 45.26 74.35 44.2 75.52C43.21 76.62 41.49 76.62 40.5 75.52C39.44 74.35 14.7 46.57 14.7 27.65C14.7 12.4 27.1 0 42.35 0C57.6 0 70 12.4 70 27.65ZM56.26 27.65C56.26 19.98 50.02 13.74 42.35 13.74C34.68 13.74 28.44 19.98 28.44 27.65C28.44 35.32 34.68 41.56 42.35 41.56C50.02 41.56 56.26 35.32 56.26 27.65Z" />
	<path id="Layer" class="shp1" d="M15.67 27.07C9.36 27.07 4.26 21.98 4.26 15.67C4.26 9.36 9.36 4.26 15.67 4.26C21.98 4.26 27.08 9.36 27.08 15.67C27.08 21.98 21.98 27.07 15.67 27.07Z" />
	<path id="Layer" fill-rule="evenodd" class="shp2" d="M31.34 15.67C31.34 24.32 24.32 31.34 15.67 31.34C7.02 31.34 0 24.32 0 15.67C0 7.02 7.02 0 15.67 0C24.32 0 31.34 7.02 31.34 15.67ZM17.73 23.51C17.73 22.25 16.93 21.34 15.67 21.34C14.48 21.34 13.61 22.25 13.61 23.51C13.61 24.73 14.45 25.67 15.67 25.67C16.93 25.67 17.73 24.73 17.73 23.51ZM18.22 8.33C18.22 4.25 13.14 4.27 13.14 8.33C13.14 11.41 14.48 16.15 14.86 17.4C15.19 18.48 16.17 18.46 16.48 17.4C16.81 16.29 18.22 11.43 18.22 8.33Z" />
</svg>